<svg xmlns="http://www.w3.org/2000/svg" viewBox="0 0 400 300" role="img" aria-label="Woman working with documents illustration">
  <!-- Background circle -->
  <circle cx="200" cy="150" r="130" fill="#e6f2ff" opacity="0.6"/>
  
  <!-- Woman figure -->
  <g transform="translate(150, 80)">
    <!-- Hair -->
    <ellipse cx="25" cy="15" rx="12" ry="18" fill="#2c3e50"/>
    <path d="M13 10 Q25 5 37 10 Q40 15 35 25 Q25 30 15 25 Q10 15 13 10" fill="#2c3e50"/>
    
    <!-- Head -->
    <circle cx="25" cy="20" r="10" fill="#fdbcb4"/>
    
    <!-- Glasses -->
    <circle cx="22" cy="18" r="3" fill="none" stroke="#34495e" stroke-width="1"/>
    <circle cx="28" cy="18" r="3" fill="none" stroke="#34495e" stroke-width="1"/>
    <line x1="25" y1="18" x2="25" y2="18" stroke="#34495e" stroke-width="1"/>
    
    <!-- Body -->
    <ellipse cx="25" cy="45" rx="15" ry="20" fill="#ecf0f1"/>
    
    <!-- Arms -->
    <ellipse cx="12" cy="40" rx="4" ry="12" fill="#fdbcb4" transform="rotate(-30 12 40)"/>
    <ellipse cx="38" cy="40" rx="4" ry="12" fill="#fdbcb4" transform="rotate(30 38 40)"/>
    
    <!-- Legs -->
    <ellipse cx="20" cy="70" rx="5" ry="15" fill="#3498db"/>
    <ellipse cx="30" cy="70" rx="5" ry="15" fill="#3498db"/>
    
    <!-- Shoes -->
    <ellipse cx="18" cy="85" rx="4" ry="3" fill="#2c3e50"/>
    <ellipse cx="32" cy="85" rx="4" ry="3" fill="#2c3e50"/>
  </g>
  
  <!-- Document/List -->
  <g transform="translate(80, 100)">
    <rect x="0" y="0" width="50" height="70" fill="#ffffff" stroke="#bdc3c7" stroke-width="1" rx="2"/>
    <line x1="8" y1="15" x2="42" y2="15" stroke="#3498db" stroke-width="2"/>
    <line x1="8" y1="25" x2="35" y2="25" stroke="#95a5a6" stroke-width="1"/>
    <line x1="8" y1="35" x2="40" y2="35" stroke="#95a5a6" stroke-width="1"/>
    <line x1="8" y1="45" x2="32" y2="45" stroke="#95a5a6" stroke-width="1"/>
    <line x1="8" y1="55" x2="38" y2="55" stroke="#95a5a6" stroke-width="1"/>
    
    <!-- Checkboxes -->
    <rect x="8" y="12" width="6" height="6" fill="#e8f5e8" stroke="#27ae60" stroke-width="1"/>
    <path d="M10 15 L12 17 L16 13" stroke="#27ae60" stroke-width="1.5" fill="none"/>
  </g>
  
  <!-- Floating elements -->
  <circle cx="320" cy="80" r="8" fill="#f39c12" opacity="0.7"/>
  <circle cx="350" cy="120" r="5" fill="#e74c3c" opacity="0.5"/>
  <circle cx="80" cy="60" r="6" fill="#9b59b6" opacity="0.6"/>
</svg>